# xmcd
#
# Track frame offsets:
#	150
#	14715
#	29587
#	44173
#	58670
#	72857
#	87756
#	101971
#	117393
#	131393
#	146366
#	160956
#	175814
#	190357
#	205011
#	219700
#	235057
#	249926
#	264259
#	278545
#
# Disc length: 3914 seconds
#
# Revision: 0
# Processed by: cddbd v1.5.2PL0 Copyright (c) Steve Scherf et al.
# Submitted via: EasyCDDAExtractor 16.0.6.1
#
DISCID=260f4814
DTITLE=Συλλογικός δίσκος - Τα ρεμπέτικα Β 1922-1937 07 Β
DYEAR=2010
DGENRE=Ρεμπέτικη
TTITLE0=Βαμβακάρης Μάρκος - Όταν πίνω τουμπεκάκι [ζεϊμπ., Μ. Βαμβακάρης, Αθήνα
TTITLE0=1933]
TTITLE1=Αμπατζή Ρίτα - Ζωή είν' αυτή Ζωΐτσα μου [Α. Διαμαντίδης, Αθήνα 12.1933
TTITLE1=]
TTITLE2=Παγιουμτζής Στράτος - Μάγκες καραβοτσακισμένοι [ζεϊμπ., Γ. Μπάτης, Αθή
TTITLE2=να 7.1934]
TTITLE3=Εσκενάζυ Ρόζα - Νέο μαναβάκι [Ιακ. Μοντανάρης, Αθήνα 1933]
TTITLE4=Κασιμάτης Ζαχαρίας - Αθηναίος σεβνταλής [ζεϊμπ., Ι. Δραγάτσης, Αθήνα 1
TTITLE4=931 ή 32]
TTITLE5=Μαρίκα η Πολίτισσα - Στο καφέ αμάν [τσιφτετέλι, Κ. Σκαρβέλης, Αθήνα 19
TTITLE5=33 ή 34]
TTITLE6=Βαμβακάρης Μάρκος - Μάρκος ο Συριανός [σέρβικο (χασάπ.), Μ. Βαμβακάρης
TTITLE6=, Αθήνα 1933]
TTITLE7=Εσκενάζυ Ρόζα - Στη Δραπετσώνα [Παν. Τούντας, Αθήνα 7.1934]
TTITLE8=Βαμβακάρης Μάρκος - Μόρτισσα χασικλού [ζεϊμπ., Μ. Βαμβακάρης, Αθήνα 19
TTITLE8=33]
TTITLE9=Εσκενάζυ Ρόζα - Ένας μάγκας στον τεκέ μου [ζεϊμπ., Κ. Τζόβενος, Αθήνα 
TTITLE9=7.1934]
TTITLE10=Ρούκουνας Κώστας ή Σαμιωτάκης - Μιά Σαμιωτίτσα μ' έμπλεξε [ζεϊμπ., Κ.
TTITLE10=Ρούκουνας, Αθήνα 7.1934]
TTITLE11=Εσκενάζυ Ρόζα - Θεσσαλονικιά [ρεμπ. (καρσιλαμάς), Γρ. Ασίκης, Αθήνα 1
TTITLE11=2.1933]
TTITLE12=Περπινιάδης Στελλάκης - Χάθηκα, τρελλάθηκα [χασάπ., Παν. Τούντας, Αθή
TTITLE12=να 1934 ή 35]
TTITLE13=Εσκενάζυ Ρόζα - Το μπερεδάκι [Τσάμας, Αθήνα 1934]
TTITLE14=Διαμαντίδης Αντώνης ή Νταλγκάς - Το μπαγλαμαδάκι σπάσε [συρτός, Α. Δι
TTITLE14=αμαντίδης, Αθήνα 1932 ή 33]
TTITLE15=Αμπατζή Ρίτα - Φτώχεια μαζί με την τιμή [Παν. Τούντας, Αθήνα 1.1934]
TTITLE16=Περπινιάδης Στελλάκης - Σεβνταλού [τσιφτετ., Εμμ. Χρυσαφάκης, Αθήνα 1
TTITLE16=933]
TTITLE17=Εσκενάζυ Ρόζα - Μάννα αυτόνα θέλω [Ασ. Μπαρούσης, Αθήνα 1.1934]
TTITLE18=Εσκενάζυ Ρόζα - Η μποέμισσα [καρσιλαμάς, Σπ. Περιστέρης, Αθήνα 1933]
TTITLE19=Άνευ ερμηνευτού - Αράπ [ζεϊμπ. οργανικό, Μ. Βαμβακάρης, Αθήνα 1933]
EXTD=
EXTT0=
EXTT1=
EXTT2=
EXTT3=
EXTT4=
EXTT5=
EXTT6=
EXTT7=
EXTT8=
EXTT9=
EXTT10=
EXTT11=
EXTT12=
EXTT13=
EXTT14=
EXTT15=
EXTT16=
EXTT17=
EXTT18=
EXTT19=
PLAYORDER=
